<?xml version="1.0" encoding="UTF-8" standalone="no"?>
<!-- Created with Inkscape (http://www.inkscape.org/) -->

<svg
   xmlns:dc="http://purl.org/dc/elements/1.1/"
   xmlns:cc="http://creativecommons.org/ns#"
   xmlns:rdf="http://www.w3.org/1999/02/22-rdf-syntax-ns#"
   xmlns:svg="http://www.w3.org/2000/svg"
   xmlns="http://www.w3.org/2000/svg"
   xmlns:sodipodi="http://sodipodi.sourceforge.net/DTD/sodipodi-0.dtd"
   xmlns:inkscape="http://www.inkscape.org/namespaces/inkscape"
   width="210mm"
   height="297mm"
   viewBox="0 0 210 297"
   version="1.1"
   id="svg8"
   inkscape:version="0.92.1 r15371"
   sodipodi:docname="drawing.svg">
  <defs
     id="defs2" />
  <sodipodi:namedview
     id="base"
     pagecolor="#ffffff"
     bordercolor="#666666"
     borderopacity="1.0"
     inkscape:pageopacity="0.0"
     inkscape:pageshadow="2"
     inkscape:zoom="3.959798"
     inkscape:cx="236.81808"
     inkscape:cy="527.13163"
     inkscape:document-units="mm"
     inkscape:current-layer="layer1"
     showgrid="false"
     inkscape:window-width="1920"
     inkscape:window-height="1001"
     inkscape:window-x="-9"
     inkscape:window-y="-9"
     inkscape:window-maximized="1" />
  <metadata
     id="metadata5">
    <rdf:RDF>
      <cc:Work
         rdf:about="">
        <dc:format>image/svg+xml</dc:format>
        <dc:type
           rdf:resource="http://purl.org/dc/dcmitype/StillImage" />
        <dc:title></dc:title>
      </cc:Work>
    </rdf:RDF>
  </metadata>
  <g
     inkscape:label="Layer 1"
     inkscape:groupmode="layer"
     id="layer1">
    <path
       style="fill:#f9f9f9;stroke-width:0.38817731"
       d="m 33.432891,159.08706 3.039327,-5.52679 4.20623,-0.10328 c 2.31342,-0.0568 4.20622,-0.17076 4.20622,-0.25323 0,-0.0825 -1.21614,-2.29913 -2.70253,-4.9259 -2.31707,-4.09476 -2.70253,-5.05534 -2.70253,-6.73485 0,-2.53732 0.72267,-3.97863 2.8233,-5.63085 2.98928,-2.35119 7.02736,-2.65915 10.33735,-0.78837 2.57138,1.45333 3.63163,3.0929 3.81117,5.89361 0.14929,2.32877 0.0774,2.53094 -2.5883,7.27678 -1.50802,2.6848 -2.74185,4.92152 -2.74185,4.97049 0,0.049 1.89833,0.13551 4.2185,0.19232 l 4.2185,0.10328 3.02824,5.52679 3.02823,5.52679 H 48.004158 30.393563 Z m 8.957137,0.58892 v -3.85063 l -1.34446,0.23438 c -0.73946,0.12891 -2.00482,0.6153 -2.81193,1.08087 -0.80711,0.46557 -1.84575,0.95114 -2.30809,1.07905 -0.672931,0.18617 -3.514092,4.33591 -3.514092,5.13262 0,0.0959 2.245179,0.17434 4.989282,0.17434 h 4.98929 z m 21.20446,3.68172 c 0,-0.0929 -0.30078,-0.71871 -0.66841,-1.39069 l -0.66841,-1.22179 -1.49837,0.66587 c -1.03578,0.4603 -2.40183,0.66525 -4.42482,0.66385 -4.56415,-0.003 -5.76751,-0.44889 -9.43656,-3.49538 -1.79293,-1.48872 -3.44713,-2.60588 -3.676,-2.48259 -0.23249,0.12525 -0.41612,1.81402 -0.41612,3.82691 v 3.60273 h 10.39435 c 5.71689,0 10.39434,-0.076 10.39434,-0.16891 z m -3.57148,-2.14979 c 1.85163,-0.67437 1.98881,-0.95576 1.20282,-2.4673 -0.63287,-1.21707 -0.79592,-1.29443 -3.1143,-1.47767 -2.71423,-0.21453 -4.29789,-0.93463 -4.99705,-2.27219 -0.29833,-0.57073 -0.80818,-0.88686 -1.43029,-0.88686 -0.76443,0 -1.23021,0.45499 -2.22601,2.17447 -0.69261,1.19596 -1.34745,2.17448 -1.4552,2.17448 -0.10776,0 -0.76846,-0.98863 -1.46823,-2.19695 -1.13217,-1.95497 -1.39575,-2.1845 -2.39313,-2.08387 -1.48404,0.14972 -1.723,1.21824 -0.3401,1.52078 0.57052,0.12481 1.83031,1.04668 2.79953,2.0486 1.8341,1.89597 3.72819,3.10279 5.66945,3.61229 1.84396,0.48397 6.25094,0.4011 7.75251,-0.14578 z m -22.19264,-4.39484 c 0.7825,-0.50321 2.12853,-1.01331 2.99119,-1.13355 1.16629,-0.16256 1.56847,-0.3926 1.56847,-0.89713 0,-0.58746 -0.33379,-0.6785 -2.48764,-0.6785 h -2.48764 l -1.05344,1.81206 c -1.211477,2.0839 -0.783133,2.34548 1.46906,0.89712 z m 22.02216,-0.19029 c 0,-0.20923 -0.28545,-0.86157 -0.63434,-1.44965 -0.59506,-1.00303 -0.78815,-1.06924 -3.1183,-1.06924 -2.15279,0 -2.48397,0.0907 -2.48397,0.68045 0,0.9784 0.91833,1.50697 3.19831,1.84087 2.8656,0.41965 3.0383,0.41952 3.0383,-0.002 z m -9.82676,-13.05516 c 1.80437,-1.23715 1.4626,-3.58874 -0.66067,-4.54581 -3.21002,-1.44692 -6.04017,2.15826 -3.45989,4.40738 1.24719,1.08713 2.66733,1.13484 4.12056,0.13843 z"
       id="path21"
       inkscape:connector-curvature="0" />
  </g>
</svg>
