<?xml version="1.0" encoding="utf-8"?>
<!-- Generator: Adobe Illustrator 17.0.0, SVG Export Plug-In . SVG Version: 6.00 Build 0)  -->
<!DOCTYPE svg PUBLIC "-//W3C//DTD SVG 1.1//EN" "http://www.w3.org/Graphics/SVG/1.1/DTD/svg11.dtd">
<svg version="1.1" xmlns="http://www.w3.org/2000/svg" xmlns:xlink="http://www.w3.org/1999/xlink" x="0px" y="0px"
	 width="78.405px" height="93.875px" viewBox="0 0 78.405 93.875" enable-background="new 0 0 78.405 93.875" xml:space="preserve">
<g id="Слой_1">
	<g>
		<path d="M-1255.891,337.5c0-3.449,0-6.438,0-9.426c0.011-97.647,0.231-195.295-0.293-292.94
			c-0.052-9.603,3.409-14.019,11.088-17.574c22.837-10.574,45.59-21.328,68.33-32.109c19.545-9.267,39.048-18.622,58.524-28.033
			c7.416-3.584,14.805-7.249,22.018-11.218c5.799-3.191,10.858-0.946,15.909,1.476c13.077,6.27,26.09,12.675,39.11,19.065
			c12.41,6.091,24.771,12.283,37.201,18.334c10.762,5.24,21.588,10.349,32.39,15.507c14.738,7.037,29.571,13.887,44.105,21.322
			c1.829,0.935,2.943,4.927,2.954,7.508c0.181,42.983,0.136,85.966,0.136,128.95c0,56.766-0.004,113.532-0.006,170.298
			c0,2.765,0,5.529,0,8.84C-1034.926,337.5-1144.819,337.5-1255.891,337.5z M-938.979,323.1c0-3.9,0-6.916,0-9.932
			c0-62.37,0-124.739,0-187.109c0-29.9-0.049-59.8,0.055-89.7c0.014-4.139-0.826-6.529-5.255-8.389
			c-10.809-4.542-21.22-10.037-31.761-15.21c-12.452-6.11-24.843-12.344-37.316-18.412c-12.232-5.95-24.564-11.695-36.795-17.647
			c-11.576-5.634-22.959-11.686-34.7-16.944c-2.725-1.221-6.844-0.754-9.823,0.321c-5.599,2.021-10.828,5.061-16.22,7.658
			c-19.658,9.47-39.372,18.824-58.964,28.429c-21.258,10.421-42.282,21.327-63.685,31.436c-5.07,2.395-6.625,4.918-6.615,10.34
			c0.169,92.503,0.119,185.007,0.137,277.51c0,2.477,0.227,4.954,0.359,7.65C-1139.21,323.1-1039.576,323.1-938.979,323.1z"/>
		<path d="M-943.038,318.198c-97.185,0-194.036,0-291.948,0c0-2.578-0.001-5.041,0-7.504c0.048-89.93,0.132-179.86,0.051-269.79
			c-0.005-5.307,1.427-8.208,6.581-10.598c18.157-8.419,35.938-17.646,53.966-26.351c12.309-5.944,24.87-11.366,37.174-17.319
			c12.2-5.903,24.386-11.876,36.265-18.39c8.679-4.76,16.762-3.917,25.001,0.48c6.247,3.334,12.334,6.994,18.715,10.043
			c17.017,8.131,34.216,15.882,51.227,24.025c19.449,9.31,38.854,18.723,58.052,28.533c2.48,1.267,5.134,5.177,5.142,7.87
			c0.264,92.266,0.219,184.532,0.206,276.798C-942.607,316.45-942.779,316.906-943.038,318.198z"/>
	</g>
	<g>
		<path fill="#FFFFFF" d="M-1083.777,204.344c-27.472,0-53.635,0-81.597,0c0-7.027-0.113-13.906,0.029-20.781
			c0.178-8.64-2.928-13.796-12.375-15.097c-2.811-0.387-6.768-4.986-7.207-8.08c-3.368-23.758,7.523-31.28,29.679-38.577
			c7.654-2.521,12.995-3.714,23.524-5.268c9.435-1.393,45.018,2.318,61.939,20.384c7.166,7.651,6.189,17.009,5.048,26.012
			c-0.276,2.177-5.132,5.372-7.863,5.352c-9.89-0.072-11.787,5.173-11.267,13.514
			C-1083.43,188.811-1083.777,195.866-1083.777,204.344z"/>
		<path fill="#FFFFFF" d="M-1081.65,231.851c0-16.126,0.309-31.637-0.111-47.127c-0.271-10.001,5.687-12.886,13.774-13.289
			c8.758-0.437,11.123,4.929,11.012,12.895c-0.278,20.009-0.468,40.035,0.072,60.034c0.264,9.779-1.379,16.266-9.941,14.574
			c-5.363,4.545-8.699,9.587-12.323,9.803c-3.412,0.203-7.127-4.682-10.709-7.328c0.481-0.988,0.962-1.975,1.443-2.963
			c-12.177,0-24.354,0-36.531,0c-11.837,0-23.674,0-36.501,0c1.346,9.405-3.559,12.86-11.536,10.688
			c-3.484-0.949-6.15-4.903-9.187-7.492c0.705-0.929,1.411-1.859,2.116-2.788c-4.334-0.334-8.668-0.668-14.189-1.093
			c0-26.249-0.172-52.104,0.103-77.954c0.085-7.982,6.191-8.966,12.62-8.873c7.114,0.102,11.211,3.418,11.301,10.686
			c0.156,12.592,0.092,25.186,0.116,37.779c0.008,3.972,0.001,7.943,0.001,12.449
			C-1140.275,231.851-1111.881,231.851-1081.65,231.851z"/>
		<path fill="#FFFFFF" d="M-1043.891,115.737c1.298-11.605,2.871-21.508,3.363-31.465c0.345-7.002,2.744-10.009,10.004-9.743
			c11.115,0.407,22.255,0.185,33.384,0.095c7.225-0.059,10.79,3.068,11.185,10.569c0.505,9.585,1.765,19.13,2.881,30.545
			C-1003.524,115.737-1023.138,115.737-1043.891,115.737z"/>
		<path fill="#FFFFFF" d="M-1008.16,259.314c7.79,0,13.755-0.422,19.604,0.215c2.23,0.243,4.196,2.914,6.283,4.478
			c-1.865,1.759-3.698,5.003-5.6,5.044c-17.425,0.38-34.866,0.369-52.291-0.022c-2.167-0.049-4.269-2.979-6.402-4.574
			c2.364-1.707,4.599-4.618,7.117-4.887c6.532-0.698,13.188-0.234,21.232-0.234c0-4.914,0-8.859,0-12.804
			c0.001-37.467-0.128-74.935,0.181-112.4c0.035-4.226-3.612-10.557,5.026-11.549c6.532-0.75,4.595,7.857,4.638,12.109
			c0.368,37.093,0.213,74.19,0.213,111.287C-1008.16,249.97-1008.16,253.964-1008.16,259.314z"/>
		<path fill="#FFFFFF" d="M-1084.359,208.599c0,7.644,0,14.511,0,22.257c-26.663,0-53.045,0-80.223,0c0-7.315,0-14.443,0-22.257
			C-1137.971,208.599-1111.85,208.599-1084.359,208.599z"/>
	</g>
	<path d="M-851.058,314.167l291.777,4.333v-283c-33-21-123-71-145.888-70.467C-730.28-34.383-835.281,18.5-856.281,37.5
		L-851.058,314.167z"/>
	<path fill="none" stroke="#000000" stroke-width="11" stroke-miterlimit="10" d="M-869.244,31.531
		c32.232-32.232,118.308-79.982,163.891-79.908c44.371,0.072,128.736,48.572,159.28,78.301c0.25,0.243,0.791,300.501,0.791,300.501
		h-320.106C-865.387,330.425-869.726,32.013-869.244,31.531z"/>
</g>
<g id="green">
	<g>
		<g>
			<path fill="#369025" d="M190.319,95.125c0-0.815,0-1.521,0-2.228c0.003-23.077,0.055-46.155-0.069-69.231
				c-0.012-2.269,0.806-3.313,2.62-4.153c5.397-2.499,10.774-5.04,16.149-7.588c4.619-2.19,9.228-4.401,13.831-6.625
				c1.753-0.847,3.499-1.713,5.204-2.651c1.37-0.754,2.566-0.224,3.76,0.349c3.091,1.482,6.166,2.996,9.243,4.506
				c2.933,1.44,5.854,2.903,8.792,4.333c2.543,1.238,5.102,2.446,7.655,3.665c3.483,1.663,6.988,3.282,10.423,5.039
				c0.432,0.221,0.696,1.164,0.698,1.774c0.043,10.158,0.032,20.317,0.032,30.475c0,13.416-0.001,26.831-0.001,40.247
				c0,0.653,0,1.307,0,2.089C242.541,95.125,216.569,95.125,190.319,95.125z M265.216,91.721c0-0.922,0-1.635,0-2.347
				c0-14.74,0-29.48,0-44.22c0-7.066-0.012-14.133,0.013-21.199c0.003-0.978-0.195-1.543-1.242-1.983
				c-2.555-1.073-5.015-2.372-7.506-3.595c-2.943-1.444-5.871-2.917-8.819-4.351c-2.891-1.406-5.805-2.764-8.696-4.171
				c-2.736-1.332-5.426-2.762-8.201-4.004c-0.644-0.288-1.618-0.178-2.321,0.076c-1.323,0.478-2.559,1.196-3.833,1.81
				c-4.646,2.238-9.305,4.449-13.935,6.719c-5.024,2.463-9.993,5.04-15.051,7.429c-1.198,0.566-1.566,1.162-1.563,2.444
				c0.04,21.861,0.028,43.723,0.032,65.585c0,0.585,0.054,1.171,0.085,1.808C217.895,91.721,241.442,91.721,265.216,91.721z"/>
			<path fill="#369025" d="M264.257,90.563c-22.968,0-45.857,0-68.997,0c0-0.609,0-1.191,0-1.773
				c0.011-21.253,0.031-42.507,0.012-63.76c-0.001-1.254,0.337-1.94,1.555-2.505c4.291-1.99,8.493-4.17,12.754-6.228
				c2.909-1.405,5.878-2.686,8.785-4.093c2.883-1.395,5.763-2.807,8.571-4.346c2.051-1.125,3.961-0.926,5.909,0.113
				c1.476,0.788,2.915,1.653,4.423,2.374c4.022,1.922,8.086,3.753,12.107,5.678c4.596,2.2,9.182,4.425,13.719,6.743
				c0.586,0.3,1.213,1.223,1.215,1.86c0.062,21.805,0.052,43.611,0.049,65.416C264.358,90.15,264.318,90.257,264.257,90.563z"/>
		</g>
		<path fill="#277718" d="M229.981,7.101c1.901,0.108,30.853,14.524,32.706,15.706c0.808,0.515,1.056,1.132,1.158,1.418
			c0.836,2.345,0.232,37.577,0.232,37.577h-34.279C229.798,61.802,229.771,7.089,229.981,7.101z"/>
		<path fill="#369025" d="M229.87,7.22c-1.911,0.108-31.016,14.524-32.879,15.706c-0.812,0.515-1.062,1.132-1.164,1.418
			c-0.84,2.345-0.233,37.577-0.233,37.577h34.46C230.054,61.92,230.082,7.208,229.87,7.22z"/>
		<polygon fill="#266E18" points="195.027,61.802 264.081,61.802 264.081,90.634 195.495,90.634 		"/>
	</g>
</g>
<g id="ogange">
	<g>
		<g>
			<path fill="#DD6D12" d="M97.068,93.875c0-0.815,0-1.521,0-2.228c0.003-23.077,0.055-46.155-0.069-69.231
				c-0.012-2.269,0.806-3.313,2.62-4.153c5.397-2.499,10.774-5.04,16.149-7.588c4.619-2.19,9.228-4.401,13.831-6.625
				c1.753-0.847,3.499-1.713,5.204-2.651c1.37-0.754,2.566-0.224,3.76,0.349c3.091,1.482,6.166,2.996,9.243,4.506
				c2.933,1.44,5.854,2.903,8.792,4.333c2.543,1.238,5.102,2.446,7.655,3.665c3.483,1.663,6.988,3.282,10.423,5.039
				c0.432,0.221,0.696,1.164,0.698,1.774c0.043,10.158,0.032,20.317,0.032,30.475c0,13.416-0.001,26.831-0.001,40.247
				c0,0.653,0,1.307,0,2.089C149.289,93.875,123.318,93.875,97.068,93.875z M171.965,90.471c0-0.922,0-1.635,0-2.347
				c0-14.74,0-29.48,0-44.22c0-7.066-0.012-14.133,0.013-21.199c0.003-0.978-0.195-1.543-1.242-1.983
				c-2.555-1.073-5.015-2.372-7.506-3.595c-2.943-1.444-5.871-2.917-8.819-4.351c-2.891-1.406-5.805-2.764-8.696-4.171
				c-2.736-1.332-5.426-2.762-8.201-4.004c-0.644-0.288-1.618-0.178-2.321,0.076c-1.323,0.478-2.559,1.196-3.833,1.81
				c-4.646,2.238-9.305,4.449-13.935,6.719c-5.024,2.463-9.993,5.04-15.051,7.429c-1.198,0.566-1.566,1.162-1.563,2.444
				c0.04,21.861,0.028,43.723,0.032,65.585c0,0.585,0.054,1.171,0.085,1.808C124.644,90.471,148.19,90.471,171.965,90.471z"/>
			<path fill="#DD6D12" d="M171.006,89.313c-22.968,0-45.857,0-68.997,0c0-0.609,0-1.191,0-1.773
				c0.011-21.253,0.031-42.507,0.012-63.76c-0.001-1.254,0.337-1.94,1.555-2.505c4.291-1.99,8.493-4.17,12.754-6.228
				c2.909-1.405,5.878-2.686,8.785-4.093c2.883-1.395,5.763-2.807,8.571-4.346c2.051-1.125,3.961-0.926,5.909,0.113
				c1.476,0.788,2.915,1.653,4.423,2.374c4.022,1.922,8.086,3.753,12.107,5.678c4.596,2.2,9.182,4.425,13.719,6.743
				c0.586,0.3,1.213,1.223,1.215,1.86c0.062,21.805,0.052,43.611,0.049,65.416C171.107,88.9,171.067,89.007,171.006,89.313z"/>
		</g>
		<path fill="#CA630F" d="M136.73,5.601c1.901,0.108,30.853,14.524,32.706,15.706c0.808,0.515,1.056,1.132,1.158,1.418
			c0.836,2.345,0.232,37.577,0.232,37.577h-34.279C136.547,60.302,136.519,5.589,136.73,5.601z"/>
		<path fill="#DD6D12" d="M136.619,5.97c-1.911,0.108-31.016,14.524-32.879,15.706c-0.812,0.515-1.062,1.132-1.164,1.418
			c-0.84,2.345-0.233,37.577-0.233,37.577h34.46C136.803,60.67,136.831,5.958,136.619,5.97z"/>
		<polygon fill="#B95A0C" points="101.775,60.552 170.83,60.552 170.83,89.384 102.243,89.384 		"/>
	</g>
</g>
<g id="yellow">
	<g>
		<g>
			<path fill="#DDAE0C" d="M0.064,93.875c0-0.815,0-1.521,0-2.228C0.067,68.57,0.119,45.492-0.005,22.416
				c-0.012-2.269,0.806-3.313,2.621-4.153c5.397-2.499,10.774-5.04,16.149-7.588c4.619-2.19,9.228-4.401,13.831-6.625
				c1.753-0.847,3.499-1.713,5.204-2.651c1.37-0.754,2.566-0.224,3.76,0.349c3.091,1.482,6.166,2.996,9.243,4.506
				c2.933,1.44,5.854,2.903,8.792,4.333c2.543,1.238,5.102,2.446,7.655,3.665c3.483,1.663,6.988,3.282,10.423,5.039
				c0.432,0.221,0.696,1.164,0.698,1.774c0.043,10.158,0.032,20.317,0.032,30.475c0,13.416-0.001,26.831-0.001,40.247
				c0,0.653,0,1.307,0,2.089C52.285,93.875,26.314,93.875,0.064,93.875z M74.961,90.471c0-0.922,0-1.635,0-2.347
				c0-14.74,0-29.48,0-44.22c0-7.066-0.012-14.133,0.013-21.199c0.003-0.978-0.195-1.543-1.242-1.983
				c-2.555-1.073-5.015-2.372-7.506-3.595c-2.943-1.444-5.871-2.917-8.819-4.351c-2.891-1.406-5.805-2.764-8.696-4.171
				c-2.736-1.332-5.426-2.762-8.201-4.004c-0.644-0.288-1.618-0.178-2.321,0.076c-1.323,0.478-2.559,1.196-3.833,1.81
				c-4.646,2.238-9.305,4.449-13.935,6.719c-5.024,2.463-9.993,5.04-15.051,7.429c-1.198,0.566-1.566,1.162-1.563,2.444
				c0.04,21.861,0.028,43.723,0.032,65.585c0,0.585,0.054,1.171,0.085,1.808C27.64,90.471,51.186,90.471,74.961,90.471z"/>
			<path fill="#DDAE0C" d="M74.001,89.313c-22.968,0-45.857,0-68.997,0c0-0.609,0-1.191,0-1.773
				c0.011-21.253,0.031-42.507,0.012-63.76c-0.001-1.254,0.337-1.94,1.555-2.505c4.291-1.99,8.493-4.17,12.754-6.228
				c2.909-1.405,5.878-2.686,8.785-4.093c2.883-1.395,5.763-2.807,8.571-4.346c2.051-1.125,3.961-0.926,5.909,0.113
				c1.476,0.788,2.915,1.653,4.423,2.374c4.022,1.922,8.086,3.753,12.107,5.678c4.596,2.2,9.182,4.425,13.719,6.743
				c0.586,0.3,1.213,1.223,1.215,1.86c0.062,21.805,0.052,43.611,0.049,65.416C74.103,88.9,74.063,89.007,74.001,89.313z"/>
		</g>
		<path fill="#C8A016" d="M39.726,5.851c1.901,0.108,30.853,14.524,32.706,15.706c0.808,0.515,1.056,1.132,1.158,1.418
			c0.836,2.345,0.232,37.577,0.232,37.577H39.543C39.543,60.552,39.515,5.839,39.726,5.851z"/>
		<path fill="#DDAE0C" d="M39.615,5.97C37.703,6.077,8.599,20.493,6.736,21.675c-0.812,0.515-1.062,1.132-1.164,1.418
			C4.732,25.438,5.339,60.67,5.339,60.67h34.46C39.799,60.67,39.827,5.958,39.615,5.97z"/>
		<polygon fill="#A48211" points="73.826,60.552 73.826,89.384 5.239,89.384 		"/>
	</g>
	<polyline fill="#A48211" points="5.719,53.5 73.719,53.5 73.826,89.5 5.719,89.5 	"/>
</g>
</svg>
