<?xml version="1.0" encoding="UTF-8" standalone="no"?>
<!-- Created with Inkscape (http://www.inkscape.org/) -->

<svg
   xmlns:dc="http://purl.org/dc/elements/1.1/"
   xmlns:cc="http://creativecommons.org/ns#"
   xmlns:rdf="http://www.w3.org/1999/02/22-rdf-syntax-ns#"
   xmlns:svg="http://www.w3.org/2000/svg"
   xmlns="http://www.w3.org/2000/svg"
   xmlns:sodipodi="http://sodipodi.sourceforge.net/DTD/sodipodi-0.dtd"
   xmlns:inkscape="http://www.inkscape.org/namespaces/inkscape"
   width="210mm"
   height="297mm"
   viewBox="0 0 210 297"
   version="1.1"
   id="svg8"
   inkscape:version="0.92.1 r15371"
   sodipodi:docname="slider1.svg">
  <defs
     id="defs2" />
  <sodipodi:namedview
     id="base"
     pagecolor="#ffffff"
     bordercolor="#666666"
     borderopacity="1.0"
     inkscape:pageopacity="0.0"
     inkscape:pageshadow="2"
     inkscape:zoom="0.49497475"
     inkscape:cx="131.20679"
     inkscape:cy="423.81321"
     inkscape:document-units="mm"
     inkscape:current-layer="layer1"
     showgrid="false"
     inkscape:window-width="1920"
     inkscape:window-height="1001"
     inkscape:window-x="-9"
     inkscape:window-y="-9"
     inkscape:window-maximized="1" />
  <metadata
     id="metadata5">
    <rdf:RDF>
      <cc:Work
         rdf:about="">
        <dc:format>image/svg+xml</dc:format>
        <dc:type
           rdf:resource="http://purl.org/dc/dcmitype/StillImage" />
        <dc:title></dc:title>
      </cc:Work>
    </rdf:RDF>
  </metadata>
  <g
     inkscape:label="Layer 1"
     inkscape:groupmode="layer"
     id="layer1">
    <g
       id="g48"
       transform="translate(-232.52449,-1.0690781)">
      <path
         style="fill:#f7f0d8;stroke-width:1.19289351"
         d="M 12.058519,176.26946 V 68.819894 L 34.336603,56.132318 C 46.589548,49.154152 67.755654,37.083925 81.372391,29.309592 l 24.757709,-14.135149 46.75219,26.686413 46.75219,26.686414 0.28135,107.58587 0.28137,107.58588 H 106.12786 12.058519 Z M 197.98425,175.274 V 69.415888 L 152.36116,43.341825 c -25.0927,-14.340734 -45.90053,-26.074063 -46.23962,-26.074063 -0.33909,0 -21.146923,11.733329 -46.239624,26.074063 L 14.258824,69.415888 V 175.274 281.13211 h 91.862716 91.86271 z m -53.60782,87.74978 c 0,-3.2013 0.21455,-4.51092 0.47677,-2.91027 0.26223,1.60064 0.26223,4.21989 0,5.82053 -0.26222,1.60065 -0.47677,0.29103 -0.47677,-2.91026 z M 63.939384,248.7958 c 0,-1.7785 0.249705,-2.50607 0.554902,-1.61682 0.305195,0.88925 0.305195,2.34438 0,3.23363 -0.305197,0.88925 -0.554902,0.16168 -0.554902,-1.61681 z m 54.920766,-30.50393 c 0.0528,-1.5068 0.31347,-1.81329 0.66466,-0.78146 0.3178,0.9337 0.27873,2.04931 -0.0868,2.47912 -0.36558,0.4298 -0.62559,-0.33415 -0.57782,-1.69766 z M 61.181614,153.40366 c -0.282487,-0.53355 3.77261,-0.81428 9.011328,-0.62385 16.802613,0.6108 18.688879,1.13588 4.914222,1.36796 -7.376566,0.1243 -13.643063,-0.21056 -13.92555,-0.74411 z m 37.788934,0.0662 c 23.113342,-0.91937 45.956212,-0.9526 45.488372,-0.0662 -0.28159,0.53355 -12.73572,0.85039 -27.67583,0.7041 -14.94011,-0.14622 -22.955754,-0.43331 -17.812542,-0.63788 z M 95.670091,130.4449 c -0.753262,-1.06709 -1.122033,-1.94018 -0.819491,-1.94018 0.302542,0 1.166381,0.87309 1.919643,1.94018 0.753263,1.0671 1.122034,1.94018 0.819492,1.94018 -0.302542,0 -1.166382,-0.87308 -1.919644,-1.94018 z m 31.354339,-0.64672 c 0.37396,-0.7114 1.175,-1.29346 1.78008,-1.29346 0.60508,0 0.79419,0.58206 0.42023,1.29346 -0.37397,0.7114 -1.175,1.29345 -1.78008,1.29345 -0.60509,0 -0.79419,-0.58205 -0.42023,-1.29345 z m -11.00152,-9.05417 c 0.37396,-0.7114 0.89825,-1.29345 1.16508,-1.29345 0.26683,0 0.48515,0.58205 0.48515,1.29345 0,0.7114 -0.52429,1.29345 -1.16509,1.29345 -0.64079,0 -0.85911,-0.58205 -0.48514,-1.29345 z"
         id="path66"
         inkscape:connector-curvature="0" />
      <path
         style="fill:#e8d8a2;stroke-width:1.19289351"
         d="m 151.07951,249.44252 c -0.003,-7.11399 0.17954,-10.18928 0.40534,-6.83398 0.22581,3.35529 0.22815,9.17583 0.006,12.93453 -0.22293,3.75869 -0.40768,1.01344 -0.41054,-6.10055 z m 16.37791,7.76072 c -0.0122,-2.8456 0.2031,-4.16201 0.47846,-2.92535 0.27536,1.23666 0.28535,3.56487 0.0222,5.17381 -0.26314,1.60894 -0.48844,0.59713 -0.50065,-2.24846 z m -88.289613,2.74527 c 0,-0.26858 0.86637,-1.28718 1.925267,-2.26354 1.744903,-1.60889 1.783815,-1.56314 0.415368,0.48836 -1.437205,2.15457 -2.340635,2.83975 -2.340635,1.77518 z m 49.891253,-12.44617 c 0,-6.04689 0.18952,-8.52062 0.42114,-5.49717 0.23162,3.02344 0.23162,7.9709 0,10.99435 -0.23162,3.02344 -0.42114,0.54971 -0.42114,-5.49718 z m 9.90137,0 c 0,-6.04689 0.18952,-8.52062 0.42114,-5.49717 0.23162,3.02344 0.23162,7.9709 0,10.99435 -0.23162,3.02344 -0.42114,0.54971 -0.42114,-5.49718 z m 28.47479,-2.5869 c 0,-2.4899 0.22641,-3.50849 0.50314,-2.26354 0.27671,1.24494 0.27671,3.28213 0,4.52708 -0.27673,1.24495 -0.50314,0.22635 -0.50314,-2.26354 z M 67.239841,212.57912 c 0,-1.7785 0.249705,-2.50606 0.554901,-1.61682 0.305196,0.88925 0.305196,2.34439 0,3.23364 -0.305196,0.88924 -0.554901,0.16168 -0.554901,-1.61682 z m -2.877107,-6.37789 c -0.348123,-0.66224 -0.212316,-1.50971 0.301789,-1.88328 0.514107,-0.37356 0.93474,0.16827 0.93474,1.20408 0,2.18098 -0.346919,2.37153 -1.236529,0.6792 z m 24.891383,-65.65576 c -0.101717,-7.24985 0.186362,-13.45328 0.640175,-13.78539 0.453813,-0.33211 0.689827,3.5624 0.524478,8.65447 -0.540265,16.6378 -0.976261,18.5586 -1.164653,5.13092 z m 12.924783,-1.17691 c -2.16077,-3.06102 -2.10559,-5.13572 0.13659,-5.13572 1.56075,0 1.7579,0.4899 0.9295,2.30974 -0.98781,2.17004 -0.53608,2.86368 1.58313,2.43086 0.49879,-0.1018 0.59334,0.41126 0.21011,1.14028 -0.91923,1.74868 -1.13945,1.69129 -2.85933,-0.74516 z m 28.42103,-10.42704 c 0.75635,-0.35882 1.99402,-0.35882 2.75038,0 0.75635,0.35882 0.13752,0.6524 -1.37519,0.6524 -1.51271,0 -2.13155,-0.29358 -1.37519,-0.6524 z m -12.8455,-2.26185 c -0.90356,-1.28 -0.93565,-2.08127 -0.10749,-2.68305 0.64945,-0.47191 1.04479,-0.0872 0.87854,0.85494 -0.16627,0.94213 0.35334,1.55302 1.15466,1.35754 0.80133,-0.19547 1.14341,0.24107 0.76019,0.97009 -0.90614,1.72378 -1.14831,1.67874 -2.68594,-0.49952 z m -28.288825,-4.29352 c 0.116208,-1.5423 1.160669,-2.34029 3.202083,-2.44646 2.649979,-0.13781 2.691769,-0.0875 0.333487,0.40158 -1.482874,0.30753 -2.923811,1.40843 -3.202083,2.44646 -0.320862,1.1969 -0.442859,1.04999 -0.333487,-0.40158 z M 74.65704,120.35044 c 0.489293,-0.57214 3.808421,-0.85586 7.375842,-0.63048 l 6.48622,0.40978 -7.375842,0.63048 c -4.056712,0.34677 -6.975512,0.16237 -6.48622,-0.40978 z m 36.11921,-0.45489 c 0.74484,-0.3543 2.23004,-0.37587 3.30046,-0.0479 1.07041,0.32795 0.46099,0.61784 -1.35426,0.6442 -1.81525,0.0264 -2.69104,-0.24196 -1.9462,-0.59627 z m 9.92231,-0.0872 c 1.96652,-0.28692 5.18446,-0.28692 7.15098,0 1.96653,0.28692 0.35755,0.52168 -3.57549,0.52168 -3.93304,0 -5.54202,-0.23476 -3.57549,-0.52168 z m 4.93088,-45.628619 c 0,-2.489896 0.22641,-3.50849 0.50313,-2.263542 0.27671,1.244948 0.27671,3.282136 0,4.527084 -0.27672,1.244949 -0.50313,0.226355 -0.50313,-2.263542 z m -46.287924,0 c 0,-1.778497 0.249705,-2.506064 0.554901,-1.616816 0.305196,0.889249 0.305196,2.344383 0,3.233632 -0.305196,0.889249 -0.554901,0.161682 -0.554901,-1.616816 z m 28.430254,-7.11399 c -0.75327,-1.067098 -1.12204,-1.940179 -0.8195,-1.940179 0.30255,0 1.16639,0.873081 1.91965,1.940179 0.75326,1.067099 1.12203,1.940179 0.81949,1.940179 -0.30254,0 -1.16638,-0.87308 -1.91964,-1.940179 z m -5.70704,-2.823754 c 0.79417,-0.373641 1.74305,-0.327689 2.10862,0.102118 0.36557,0.429804 -0.2842,0.73551 -1.44395,0.679347 -1.28161,-0.06206 -1.5423,-0.368558 -0.66467,-0.781461 z m -17.396161,-7.36549 c 0,-0.268594 0.86637,-1.287188 1.925266,-2.263543 1.744903,-1.608888 1.783816,-1.563138 0.415368,0.48835 -1.437205,2.154566 -2.340634,2.839748 -2.340634,1.775193 z m 33.450121,-2.421919 -2.09578,-2.910269 2.47534,2.464012 c 2.32621,2.315562 2.97618,3.356525 2.09578,3.356525 -0.20877,0 -1.32267,-1.309621 -2.47534,-2.910268 z"
         id="path64"
         inkscape:connector-curvature="0" />
      <path
         style="fill:#e4c765;stroke-width:1.19289351"
         d="m 119.5984,148.34331 c 0.75636,-0.35882 1.99403,-0.35882 2.75038,0 0.75636,0.35882 0.13752,0.6524 -1.37519,0.6524 -1.51271,0 -2.13154,-0.29358 -1.37519,-0.6524 z m 5.50076,0 c 0.75636,-0.35882 1.99403,-0.35882 2.75038,0 0.75636,0.35882 0.13752,0.6524 -1.37519,0.6524 -1.5127,0 -2.13154,-0.29358 -1.37519,-0.6524 z M 96.629914,128.82806 c -1.335936,-2.00275 -1.308106,-2.07856 0.241553,-0.65795 0.963299,0.88308 2.156576,1.1741 2.651726,0.64673 0.495147,-0.52738 0.544147,-0.2313 0.108882,0.65794 -1.022907,2.08982 -1.202565,2.05112 -3.002165,-0.64672 z M 72.440647,116.48897 c 0.480466,-0.56175 5.532344,-0.84898 11.226396,-0.63829 l 10.35282,0.38308 -11.226396,0.63829 c -6.174518,0.35107 -10.833287,0.17868 -10.35282,-0.38308 z m 50.183173,0.37465 -11.00152,-0.79246 10.66155,-0.25049 c 6.16249,-0.14479 10.94849,0.29532 11.34149,1.04295 0.37397,0.7114 0.52696,1.18073 0.33997,1.04296 -0.18698,-0.13778 -5.29065,-0.60711 -11.34149,-1.04296 z M 102.06473,83.643727 c 0.79417,-0.373641 1.74305,-0.327688 2.10862,0.102118 0.36557,0.429804 -0.2842,0.735511 -1.44395,0.679348 -1.28161,-0.06206 -1.5423,-0.368558 -0.66467,-0.781462 z m -5.294487,-2.350056 c -0.753262,-1.067098 -1.122033,-1.940179 -0.819491,-1.940179 0.302542,0 1.166382,0.873081 1.919644,1.940179 0.753262,1.067099 1.122033,1.940179 0.819491,1.940179 -0.302542,0 -1.166381,-0.87308 -1.919644,-1.940179 z M 79.254661,78.598978 c 0.05279,-1.506798 0.313478,-1.813291 0.664676,-0.781461 0.317802,0.933711 0.278717,2.049314 -0.08686,2.479118 -0.365572,0.429803 -0.625592,-0.334143 -0.577822,-1.697657 z"
         id="path62"
         inkscape:connector-curvature="0" />
      <path
         style="fill:#cdb870;stroke-width:1.19289351"
         d="m 125.77601,249.44252 c -0.003,-7.11399 0.17953,-10.18928 0.40534,-6.83398 0.22581,3.35529 0.22815,9.17583 0.006,12.93453 -0.22293,3.75869 -0.40768,1.01344 -0.41054,-6.10055 z m 22.00305,0 c -0.003,-7.11399 0.17953,-10.18928 0.40534,-6.83398 0.2258,3.35529 0.22815,9.17583 0.005,12.93453 -0.22294,3.75869 -0.40769,1.01344 -0.41055,-6.10055 z m 23.10319,0 c -0.003,-7.11399 0.17954,-10.18928 0.40534,-6.83398 0.22581,3.35529 0.22815,9.17583 0.006,12.93453 -0.22323,3.75869 -0.40798,1.01344 -0.41084,-6.10055 z m -28.62136,-1.94018 c 0,-6.04689 0.18951,-8.52062 0.42114,-5.49717 0.23161,3.02344 0.23161,7.9709 0,10.99435 -0.23163,3.02344 -0.42114,0.54971 -0.42114,-5.49718 z m -75.107904,1.8324 c 0.05279,-1.50681 0.313479,-1.81329 0.664676,-0.78147 0.317802,0.93371 0.278717,2.04931 -0.08686,2.47913 -0.365572,0.4298 -0.625592,-0.33416 -0.577822,-1.69766 z m 24.116496,-1.0273 c 0,-0.26859 0.86637,-1.28718 1.925267,-2.26354 1.744903,-1.60889 1.783815,-1.56314 0.415368,0.48835 -1.437205,2.15457 -2.340635,2.83975 -2.340635,1.77519 z m 64.995838,-4.14651 c 0.0528,-1.50681 0.31348,-1.81329 0.66467,-0.78147 0.3178,0.93371 0.27872,2.04931 -0.0868,2.47912 -0.36558,0.42981 -0.62559,-0.33415 -0.57782,-1.69765 z M 69.708677,227.58985 c -0.323871,-0.99229 -0.391556,-4.04807 -0.150411,-6.79063 0.422718,-4.8076 0.445079,-4.76931 0.623384,1.06747 0.157791,5.16524 0.548312,6.13623 2.660282,6.61449 l 2.475342,0.56054 -2.509871,0.17614 c -1.380428,0.0969 -2.774855,-0.63573 -3.098726,-1.62801 z m 21.285767,0.94753 c 0.756355,-0.35882 1.994026,-0.35882 2.750381,0 0.756354,0.35881 0.137519,0.6524 -1.375191,0.6524 -1.512709,0 -2.131545,-0.29359 -1.37519,-0.6524 z m -39.075108,-7.8283 c 1.653144,-0.29513 4.623555,-0.30107 6.600914,-0.0132 1.977358,0.28788 0.624786,0.52935 -3.005716,0.53661 -3.630503,0.008 -5.248342,-0.22827 -3.595198,-0.52341 z m 26.447895,-0.0198 c 2.282561,-0.28 5.74804,-0.2753 7.701066,0.0103 1.953026,0.28573 0.08548,0.51483 -4.150109,0.50909 -4.235586,-0.005 -5.833517,-0.23953 -3.550957,-0.51953 z m 16.851005,-0.16264 c -0.319941,-0.60863 0.640979,-0.83181 2.135376,-0.49595 1.494399,0.33591 2.717088,0.83388 2.717088,1.10665 0,1.00081 -4.289098,0.46104 -4.852464,-0.61066 z m 18.858474,0.25817 c 0.74483,-0.3543 2.23004,-0.37586 3.30045,-0.048 1.07042,0.32794 0.461,0.61783 -1.35425,0.64419 -1.81525,0.0264 -2.69104,-0.24196 -1.9462,-0.59627 z m 6.62185,-0.008 c 0.75635,-0.35881 1.99402,-0.35881 2.75038,0 0.75635,0.35882 0.13751,0.65241 -1.37519,0.65241 -1.51271,0 -2.13155,-0.29359 -1.37519,-0.65241 z m 17.56707,0.014 c 2.30566,-0.58564 2.46005,-1.38057 2.8044,-14.43986 l 0.36443,-13.8201 -0.054,14.22798 -0.054,14.22798 -2.75038,0.21187 c -2.35448,0.18138 -2.39916,0.12262 -0.3104,-0.40787 z m 6.91131,0.34632 c 0,-0.27277 1.22269,-0.77074 2.71709,-1.10661 1.49439,-0.33586 2.45532,-0.11266 2.13538,0.49595 -0.56337,1.0717 -4.85247,1.61147 -4.85247,0.61066 z m 18.40662,-0.35249 c 0.74483,-0.3543 2.23004,-0.37586 3.30045,-0.048 1.07042,0.32795 0.461,0.61784 -1.35425,0.6442 -1.81525,0.0264 -2.69104,-0.24196 -1.9462,-0.59627 z M 54.290462,212.269 c 0.100543,-3.42131 0.594145,-4.24943 2.616122,-4.38906 1.943584,-0.13421 2.018356,-0.0454 0.339667,0.40336 -1.386179,0.37059 -2.317584,1.93321 -2.616122,4.38908 -0.433995,3.57017 -0.455677,3.54442 -0.339667,-0.40338 z m 51.018788,0.68877 c 1.36849,-0.30939 3.34877,-0.29764 4.40061,0.0261 1.05184,0.32374 -0.0678,0.57688 -2.48817,0.56253 -2.42033,-0.0144 -3.28093,-0.27925 -1.91244,-0.58863 z m 49.50685,0 c 1.36849,-0.30939 3.34877,-0.29764 4.40061,0.0261 1.05185,0.32374 -0.0679,0.57688 -2.48817,0.56253 -2.42033,-0.0144 -3.28093,-0.27925 -1.91244,-0.58863 z M 54.280369,199.98396 c 0.106703,-2.84484 0.69453,-3.61617 2.884393,-3.78487 2.292735,-0.17662 2.34957,-0.10955 0.341571,0.40307 -1.485273,0.37918 -2.591149,1.8303 -2.884394,3.78487 -0.41388,2.75864 -0.458197,2.70635 -0.34157,-0.40307 z m 29.081769,-3.80984 c 0.794172,-0.37364 1.743054,-0.3277 2.108625,0.10205 0.365571,0.4298 -0.284206,0.73551 -1.44395,0.67935 -1.281614,-0.0621 -1.542303,-0.36856 -0.664675,-0.78145 z m 48.317002,0.0352 c 0.74484,-0.3543 2.23004,-0.37587 3.30046,-0.048 1.07041,0.32794 0.461,0.61783 -1.35426,0.64419 -1.81525,0.0264 -2.69103,-0.24195 -1.9462,-0.59627 z"
         id="path60"
         inkscape:connector-curvature="0" />
      <path
         style="fill:#bca24a;stroke-width:1.19289351"
         d="m 140.99081,264.96395 c 0.0224,-2.13419 0.26899,-2.85069 0.54792,-1.5922 0.27893,1.25849 0.26059,3.00465 -0.0407,3.88036 -0.30136,0.87571 -0.52958,-0.15396 -0.50716,-2.28816 z m -49.421686,-8.40744 c 0,-3.20129 0.214547,-4.51091 0.476772,-2.91027 0.262225,1.60065 0.262225,4.21989 0,5.82054 -0.262225,1.60065 -0.476772,0.29103 -0.476772,-2.91027 z m -12.314463,-7.22177 c 0.05279,-1.50681 0.313478,-1.81329 0.664676,-0.78147 0.317802,0.93371 0.278717,2.04931 -0.08686,2.47913 -0.365572,0.4298 -0.625592,-0.33416 -0.577822,-1.69766 z m 12.314463,-7.00621 c 0,-3.20129 0.214547,-4.51091 0.476772,-2.91027 0.262225,1.60065 0.262225,4.21989 0,5.82054 -0.262225,1.60065 -0.476772,0.29103 -0.476772,-2.91027 z m -2.285473,-17.46161 c 0.02242,-2.1342 0.268985,-2.85069 0.547922,-1.5922 0.278936,1.25849 0.260592,3.00465 -0.04076,3.88036 -0.301362,0.8757 -0.529583,-0.15396 -0.507162,-2.28816 z m 46.388529,-16.16816 c 0,-6.75829 0.18542,-9.52304 0.41205,-6.1439 0.22663,3.37915 0.22663,8.90866 0,12.2878 -0.22663,3.37915 -0.41205,0.61439 -0.41205,-6.1439 z m -49.526316,-1.94018 c 0.004,-5.69119 0.197412,-7.85851 0.429815,-4.81626 0.232402,3.04225 0.229132,7.69868 -0.0073,10.34762 -0.236403,2.64894 -0.42655,0.15983 -0.422554,-5.53136 z m 5.525428,-2.5869 c -0.0029,-7.11399 0.179538,-10.18928 0.405339,-6.83399 0.225802,3.3553 0.228145,9.17584 0.0052,12.93453 -0.222899,3.7587 -0.407646,1.01345 -0.41051,-6.10054 z m 29.096018,-58.44222 c 0.79417,-0.37364 1.74305,-0.32769 2.10863,0.10206 0.36557,0.42981 -0.28421,0.7355 -1.44395,0.67934 -1.28162,-0.0621 -1.5423,-0.36855 -0.66468,-0.78145 z m 4.33185,0.0269 c 0.75636,-0.35882 1.99403,-0.35882 2.75038,0 0.75636,0.35881 0.13752,0.6524 -1.37519,0.6524 -1.5127,0 -2.13154,-0.29359 -1.37519,-0.6524 z"
         id="path58"
         inkscape:connector-curvature="0" />
      <path
         style="fill:#dbac0b;stroke-width:1.19289351"
         d="M 1.3261849,178.8657 1.6070727,62.371304 52.764153,33.402175 C 80.900547,17.469154 104.66384,4.4330463 105.57146,4.4330463 c 0.90763,0 24.67092,13.0361077 52.80731,28.9691287 l 51.15708,28.969129 0.28089,116.494396 0.28088,116.49439 H 105.57146 1.045297 Z M 200.18456,175.9024 V 68.085781 L 153.47661,41.383319 C 127.78724,26.696965 106.47746,14.680857 106.12154,14.680857 c -0.35593,0 -21.665709,12.016108 -47.355078,26.702462 L 12.058519,68.085781 V 175.9024 283.71902 h 94.063021 94.06302 z M 14.521239,121.30459 14.8089,70.127099 57.714838,45.534641 C 81.313104,32.008789 101.73468,20.420872 103.09612,19.783713 l 2.47534,-1.158469 v 14.195965 14.195966 l -4.12557,0.02841 c -11.951815,0.0823 -22.278083,13.402277 -22.278083,28.736779 0,2.972442 2.465129,10.412163 7.15099,21.581575 3.933044,9.374961 7.15099,17.306581 7.15099,17.625811 0,0.31923 -4.684022,0.58042 -10.408936,0.58042 H 72.651915 l -8.293652,20.24103 c -4.56151,11.13257 -8.293653,20.44543 -8.293653,20.69525 0,0.24981 11.386576,0.4542 25.303502,0.4542 h 25.303498 v 7.76072 7.76072 H 60.452596 14.233576 Z m 50.894665,22.72154 c 2.133007,-4.9798 4.490806,-9.06477 5.239554,-9.07771 0.748747,-0.0129 3.539899,-1.75911 6.202559,-3.88036 2.662659,-2.12125 6.251905,-3.85682 7.976104,-3.85682 h 3.134904 v 12.93453 12.93453 H 74.753367 61.53771 Z m 24.753426,-3.88036 c 0,-8.33215 0.419239,-12.93453 1.178232,-12.93453 0.648027,0 4.361041,3.89229 8.251142,8.64953 5.793296,7.08468 7.072906,9.42477 7.072906,12.93452 v 4.28501 H 98.420472 90.16933 Z m 14.36302,-1.85371 c -1.02217,-1.44804 -0.94091,-2.65106 0.37132,-5.49718 l 1.67985,-3.64346 0.0441,5.49717 c 0.0483,6.02711 -0.15862,6.38692 -2.09522,3.64347 z m -5.93597,-7.71307 c -0.950058,-1.70474 -3.234803,-3.88401 -5.077214,-4.84284 -4.04151,-2.10326 -4.399132,-4.99217 -0.617989,-4.99217 2.173123,0 3.301945,1.3227 5.519295,6.46726 2.958518,6.86417 3.044768,8.51549 0.175908,3.36775 z m -28.229791,1.23483 c 0,-0.4539 1.000199,-3.1303 2.222664,-5.94756 2.21516,-5.10499 2.244873,-5.12228 8.801218,-5.12228 6.786387,0 8.892912,1.95556 3.553136,3.2985 -3.949527,0.9933 -6.630686,2.40995 -11.001523,5.81289 -1.966522,1.53105 -3.575495,2.41235 -3.575495,1.95845 z M 96.850093,79.825785 c -1.254085,-1.874436 -2.280154,-4.520135 -2.280154,-5.87933 0,-3.540178 4.90971,-8.820943 8.201131,-8.820943 2.73372,0 2.80039,0.215576 2.80039,9.054169 v 9.054169 h -3.22061 c -2.16891,0 -3.965189,-1.112905 -5.500757,-3.408065 z"
         id="path56"
         inkscape:connector-curvature="0" />
      <path
         style="fill:#c79f15;stroke-width:1.19289351"
         d="m 55.348866,251.3827 c 0,-6.04689 0.189508,-8.52062 0.421128,-5.49717 0.231621,3.02344 0.231621,7.9709 0,10.99435 -0.23162,3.02344 -0.421128,0.54971 -0.421128,-5.49718 z m 28.306404,-2.04796 c 0.05279,-1.50681 0.313479,-1.81329 0.664676,-0.78147 0.317802,0.93371 0.278717,2.04931 -0.08686,2.47913 -0.365572,0.4298 -0.625592,-0.33416 -0.577822,-1.69766 z m 11.129143,-24.46782 c 0.02242,-2.1342 0.268985,-2.85069 0.547922,-1.5922 0.278935,1.25849 0.260592,3.00465 -0.04076,3.88036 -0.301361,0.8757 -0.529583,-0.15396 -0.507162,-2.28816 z M 48.779587,206.11186 c 0,-8.18109 0.178631,-11.5279 0.396956,-7.43736 0.218327,4.09055 0.218327,10.78417 0,14.87471 -0.218325,4.09054 -0.396956,0.74373 -0.396956,-7.43735 z m 57.892023,-41.39049 v -7.76072 h 21.45297 c 11.79914,0 21.45297,-0.21825 21.45297,-0.48503 0,-0.26676 -3.68253,-9.55811 -8.1834,-20.64744 l -8.1834,-20.16241 -10.37661,-0.37117 -10.37662,-0.37116 6.99758,-17.46161 c 7.59208,-18.945163 8.46977,-24.456507 5.31066,-33.347952 -2.87859,-8.101943 -12.08566,-17.096703 -17.50024,-17.096703 -1.42264,0 -1.69406,-2.279589 -1.69406,-14.22798 0,-7.825389 0.3713,-14.218203 0.82512,-14.206252 0.45381,0.0119 21.12292,11.631016 45.93135,25.820148 l 45.10625,25.798421 0.28765,51.140288 0.28767,51.14029 h -45.66895 -45.66894 z m 0,-15.9674 v -4.32634 l 6.32588,2.52449 c 7.38516,2.94723 18.55827,2.6135 24.03786,-0.71798 l 3.39246,-2.06255 1.80669,4.45435 1.80669,4.45436 H 125.3564 106.67161 Z m 11.5516,-3.58955 c -3.02542,-0.458 -6.8622,-1.57697 -8.52618,-2.48659 -2.69611,-1.47382 -3.02542,-2.34218 -3.02542,-7.97772 0,-12.50451 6.04277,-18.50251 10.13095,-10.0559 2.25349,4.65594 5.8212,6.44739 12.84011,6.44739 4.89823,0 5.34145,0.28618 7.07937,4.57097 1.01969,2.51403 1.85399,5.071 1.85399,5.68215 0,2.90415 -11.78749,5.11637 -20.35282,3.8197 z m 5.50076,-17.59003 c -2.48979,-0.71313 -6.05083,-4.08973 -6.05083,-5.73743 0,-0.60114 2.95769,-1.09298 6.57266,-1.09298 6.19025,0 6.67196,0.22577 8.27939,3.88036 l 1.70673,3.88035 -4.15382,-0.15004 c -2.2846,-0.0825 -5.14396,-0.43364 -6.35413,-0.78026 z M 105.60623,75.149771 c -0.0365,-9.162407 0.90683,-10.634185 3.75338,-5.8561 2.39344,4.017519 2.14301,6.753477 -1.003,10.957782 l -2.71562,3.629123 -0.0348,-8.730805 z"
         id="path54"
         inkscape:connector-curvature="0" />
      <path
         style="fill:#a7840d;stroke-width:1.19289351"
         d="m 14.258824,226.8071 v -54.32501 h 46.206395 46.206391 v 9.70089 c 0,7.28744 -0.36994,9.7009 -1.48699,9.7009 -0.87115,0 -3.04115,4.94913 -5.239538,11.94984 -2.533366,8.06745 -4.37355,12.09046 -5.66399,12.38265 -1.70821,0.38677 -1.911458,-0.89015 -1.911458,-12.00895 v -12.44174 l -7.342811,0.38246 -7.342811,0.38246 -1.262825,7.11399 c -1.54448,8.70066 -4.439109,16.81489 -5.99846,16.81489 -0.654113,0 -1.15629,2.80873 -1.15629,6.46726 0,6.03612 0.183359,6.46727 2.750381,6.46727 2.322543,0 2.75038,-0.60362 2.75038,-3.88036 v -3.88036 h 7.15099 7.15099 v 3.96627 c 0,3.56376 0.307031,3.92473 3.025418,3.55699 2.376295,-0.32146 3.10011,-1.17245 3.373531,-3.96627 0.269835,-2.75715 0.930495,-3.55699 2.938007,-3.55699 1.983136,0 2.759726,-0.90909 3.314796,-3.88036 0.49855,-2.6687 1.38466,-3.88036 2.83779,-3.88036 1.98913,0 2.11289,1.12782 2.11289,19.25329 0,12.90343 -0.47259,20.57476 -1.43295,23.26007 l -1.43295,4.00679 -4.029486,-5.66754 -4.029486,-5.66755 4.455782,-5.95145 c 4.19466,-5.60268 4.30524,-5.95146 1.88695,-5.95151 -1.60676,-4e-5 -3.892475,1.81655 -6.103033,4.85045 l -3.534189,4.8505 -0.04131,-4.85045 c -0.03383,-3.97196 -0.439817,-4.85045 -2.241612,-4.85045 -2.045897,0 -2.200305,0.86231 -2.200305,12.2878 0,11.4255 0.154408,12.2878 2.200305,12.2878 1.800998,0 2.208615,-0.88024 2.2461,-4.85044 l 0.0458,-4.85045 3.646291,4.85045 c 2.756975,3.66744 4.489903,4.85044 7.105193,4.85044 h 3.4589 v 9.03998 9.03998 l 45.93136,0.35213 c 25.26225,0.19368 4.46937,0.49109 -46.20639,0.66092 l -92.13776,0.30878 z m 32.868211,32.63587 c 0.572666,-1.25804 1.36121,-4.60485 1.752321,-7.43736 1.408935,-10.20377 1.681919,-10.97053 3.905757,-10.97053 1.990745,0 2.179344,0.89547 2.179344,10.34762 0,9.48532 0.18336,10.34762 2.200305,10.34762 2.045897,0 2.200305,-0.8623 2.200305,-12.2878 v -12.2878 h -6.405519 -6.40552 l -1.229382,9.33801 c -0.733489,5.57135 -1.921718,9.93319 -2.945774,10.81357 -0.944017,0.81156 -1.716394,2.13898 -1.716394,2.9498 0,2.36576 5.322251,1.69631 6.464557,-0.81313 z m 34.232664,-0.93575 c 1.915635,-2.39738 2.575434,-4.71965 2.575434,-9.0647 0,-8.1346 -3.366348,-12.2878 -9.95979,-12.2878 -6.749898,0 -10.209667,4.16399 -10.209667,12.2878 0,8.12382 3.459769,12.2878 10.209667,12.2878 3.702865,0 5.401272,-0.74131 7.384356,-3.2231 z m -11.372676,-3.02264 c -4.539341,-5.89723 -0.320548,-16.14105 5.638604,-13.69132 2.562238,1.05331 3.042357,2.05605 3.341889,6.97964 0.263109,4.32489 -0.12976,6.16188 -1.585463,7.41335 -2.696836,2.31845 -5.257323,2.0755 -7.39503,-0.70167 z m -5.873984,-35.33837 c 1.32166,-0.81791 2.766737,-2.12753 3.211285,-2.91027 1.402277,-2.4691 0.910195,-8.15385 -0.854894,-9.87612 -1.17723,-1.14869 -1.345679,-2.06858 -0.550077,-3.00398 0.630729,-0.74155 1.146779,-3.24857 1.146779,-5.57116 0,-5.50622 -2.31986,-6.9008 -11.479273,-6.9008 h -7.223315 v 14.0124 c 0,7.70683 0.330046,14.40045 0.733435,14.8747 1.21951,1.4338 12.444272,0.96676 15.01606,-0.62477 z m -9.148582,-7.56709 c 0,-3.22345 0.442805,-3.88036 2.615673,-3.88036 3.818754,0 5.637971,3.04591 3.394557,5.6835 -0.971731,1.14247 -2.72156,2.07722 -3.888508,2.07722 -1.624034,0 -2.121722,-0.9102 -2.121722,-3.88036 z m 0,-12.2878 c 0,-2.5976 0.547775,-3.23363 2.784909,-3.23363 3.16762,0 4.9193,3.55878 2.601126,5.28454 -3.013903,2.2437 -5.386035,1.34043 -5.386035,-2.05091 z m 23.701136,13.90462 c 0.458341,-1.24495 1.614597,-5.61036 2.569456,-9.7009 2.513996,-10.76975 4.533672,-9.76138 4.533672,2.26354 v 9.7009 h -3.968237 c -3.363303,0 -3.841198,-0.34507 -3.134891,-2.26354 z m 26.587097,-8.08408 c 0.31647,-1.4228 0.76519,-2.58691 0.99716,-2.58691 0.23197,0 0.42176,1.16411 0.42176,2.58691 0,1.42279 -0.44872,2.5869 -0.99715,2.5869 -0.54844,0 -0.73823,-1.16411 -0.42177,-2.5869 z"
         id="path52"
         inkscape:connector-curvature="0" />
      <path
         style="fill:#a38110;stroke-width:1.19289351"
         d="m 106.67161,271.53604 c 0,-10.96993 2.40543,-16.25329 7.40507,-16.26481 2.87676,-0.006 3.68616,0.60842 4.24484,3.22546 0.48271,2.26119 1.44132,3.23363 3.18766,3.23363 h 2.49737 l -3.89056,-12.2878 c -3.30251,-10.43054 -4.25774,-12.2878 -6.31983,-12.2878 -1.90806,0 -2.91766,1.45696 -4.70556,6.79063 l -2.27628,6.79062 -0.0714,-18.4317 c -0.0669,-17.28283 0.0591,-18.4317 2.02133,-18.4317 1.33609,0 2.50865,1.40291 3.24324,3.88036 1.06557,3.59379 1.54546,3.88036 6.49825,3.88036 2.94125,0 6.20628,-0.7381 7.25562,-1.64022 1.54962,-1.33219 3.67145,-10.78584 5.07518,-22.61202 0.0211,-0.17785 1.00994,-0.32336 2.1974,-0.32336 1.96686,0 2.18718,1.0649 2.47534,11.96444 l 0.31633,11.96443 3.02541,0.40928 3.02542,0.40927 v -14.96062 -14.96061 h -8.1375 -8.13751 l -1.33915,11.0915 c -0.97778,8.0985 -1.82485,11.3016 -3.13905,11.87009 -0.98995,0.42822 -2.07381,1.25218 -2.40859,1.83101 -0.33479,0.57882 -2.31506,-4.55352 -4.40061,-11.40523 -2.51299,-8.25594 -4.44127,-12.6653 -5.71719,-13.07336 -1.61246,-0.51569 -1.92527,-2.16735 -1.92527,-10.16576 v -9.55004 h 45.65632 45.65632 v 53.67828 53.67829 h -45.65632 -45.65632 z m 38.50533,-8.51226 c 0,-2.8456 -0.49507,-5.17382 -1.10015,-5.17382 -0.64175,0 -1.10015,-4.3115 -1.10015,-10.34762 0,-9.48531 -0.18336,-10.34762 -2.20031,-10.34762 -2.01694,0 -2.2003,0.86231 -2.2003,10.34762 v 10.34762 h -4.40061 -4.40061 v -10.34762 c 0,-9.48531 -0.18336,-10.34762 -2.2003,-10.34762 -2.0459,0 -2.20031,0.86231 -2.20031,12.2878 v 12.2878 h 7.70107 c 7.48103,0 7.70106,0.0924 7.70106,3.23363 0,2.37133 0.58675,3.23364 2.20031,3.23364 1.83359,0 2.2003,-0.86231 2.2003,-5.17381 z m 6.60092,-13.58126 c 0,-11.42549 -0.15441,-12.2878 -2.20031,-12.2878 -2.0459,0 -2.2003,0.86231 -2.2003,12.2878 0,11.4255 0.1544,12.2878 2.2003,12.2878 2.0459,0 2.20031,-0.8623 2.20031,-12.2878 z m 10.16629,7.77673 c 3.21973,-5.84378 5.23584,-5.84994 5.23584,-0.016 0,3.66478 0.4191,4.52708 2.2003,4.52708 2.0459,0 2.20031,-0.8623 2.20031,-12.2878 v -12.2878 h -5.68918 c -6.42295,0 -9.71295,2.47758 -9.71295,7.31446 0,1.66823 0.90912,4.10202 2.02026,5.40839 1.96026,2.30469 1.94408,2.4872 -0.54461,6.14391 -3.1398,4.61342 -3.2138,5.70884 -0.38561,5.70884 1.29305,0 3.20826,-1.8478 4.67564,-4.51107 z m -0.0449,-9.9756 c -1.83036,-2.15195 -1.6493,-4.48987 0.42002,-5.42346 3.60627,-1.62701 4.86071,-0.8282 4.86071,3.09525 0,2.87433 -0.51341,3.88036 -1.98028,3.88036 -1.08915,0 -2.57435,-0.69847 -3.30045,-1.55215 z m -10.67148,-29.49072 c 0.65126,-3.48615 1.15215,-3.88036 4.93048,-3.88036 3.68375,0 4.34833,0.48148 5.35612,3.88036 0.87305,2.94447 1.82769,3.88036 3.95815,3.88036 1.54418,0 2.80761,-0.50256 2.80761,-1.11681 0,-0.61423 -1.92749,-7.16234 -4.28332,-14.55134 -4.00452,-12.56011 -4.49343,-13.45984 -7.51144,-13.82322 -3.15543,-0.37994 -3.32255,-0.0886 -7.42001,12.93453 -2.30555,7.32776 -4.42411,14.05077 -4.70794,14.94002 -0.34184,1.07103 0.60832,1.61682 2.81471,1.61682 2.8063,0 3.44488,-0.61098 4.05564,-3.88036 z m 4.09165,-13.19176 c 1.08118,-3.64638 1.32642,-3.83833 2.06576,-1.61681 1.40278,4.215 1.09527,5.7544 -1.14949,5.7544 -1.93305,0 -2.02284,-0.4055 -0.91627,-4.13759 z m -42.9265,42.61781 c 0.66344,-2.31205 1.29735,-4.34874 1.4087,-4.52599 0.11135,-0.17724 0.73411,1.71444 1.38393,4.20373 1.11833,4.28409 1.04304,4.52598 -1.4087,4.52598 -2.43625,0 -2.51849,-0.24982 -1.38393,-4.20372 z m -5.64399,-42.68394 c 0.0648,-3.52276 0.23049,-3.78467 1.02283,-1.61682 1.30607,3.57343 1.30607,5.82054 0,5.82054 -0.60509,0 -1.06536,-1.89167 -1.02283,-4.20372 z"
         id="path50"
         inkscape:connector-curvature="0" />
    </g>
  </g>
</svg>
