<?xml version="1.0" encoding="UTF-8" standalone="no"?>
<!-- Created with Inkscape (http://www.inkscape.org/) -->

<svg
   xmlns:dc="http://purl.org/dc/elements/1.1/"
   xmlns:cc="http://creativecommons.org/ns#"
   xmlns:rdf="http://www.w3.org/1999/02/22-rdf-syntax-ns#"
   xmlns:svg="http://www.w3.org/2000/svg"
   xmlns="http://www.w3.org/2000/svg"
   xmlns:sodipodi="http://sodipodi.sourceforge.net/DTD/sodipodi-0.dtd"
   xmlns:inkscape="http://www.inkscape.org/namespaces/inkscape"
   width="210mm"
   height="297mm"
   viewBox="0 0 210 297"
   version="1.1"
   id="svg75"
   inkscape:version="0.92.1 r15371"
   sodipodi:docname="sofa.svg">
  <defs
     id="defs69" />
  <sodipodi:namedview
     id="base"
     pagecolor="#ffffff"
     bordercolor="#666666"
     borderopacity="1.0"
     inkscape:pageopacity="0.0"
     inkscape:pageshadow="2"
     inkscape:zoom="0.35"
     inkscape:cx="400"
     inkscape:cy="560"
     inkscape:document-units="mm"
     inkscape:current-layer="layer1"
     showgrid="false"
     inkscape:window-width="1920"
     inkscape:window-height="1001"
     inkscape:window-x="-9"
     inkscape:window-y="-9"
     inkscape:window-maximized="1" />
  <metadata
     id="metadata72">
    <rdf:RDF>
      <cc:Work
         rdf:about="">
        <dc:format>image/svg+xml</dc:format>
        <dc:type
           rdf:resource="http://purl.org/dc/dcmitype/StillImage" />
        <dc:title></dc:title>
      </cc:Work>
    </rdf:RDF>
  </metadata>
  <g
     inkscape:label="Layer 1"
     inkscape:groupmode="layer"
     id="layer1">
    <path
       style="fill:#f9f9f9;stroke-width:3.30147004"
       d="m 16.998671,280.86578 c -3.23248,-4.73552 0.785569,-9.60122 7.927437,-9.60122 4.288874,0 6.462074,1.88378 5.762588,4.99498 -1.257528,5.59412 -10.819504,8.81134 -13.690025,4.60624 z m 88.005419,-3.60718 c 0,-4.65034 1.9835,-6.16168 6.90393,-5.26049 9.4229,1.7258 9.83372,8.96387 0.5969,10.52083 -5.47279,0.92279 -7.50104,-0.4999 -7.50104,-5.26034 z m 42.8944,3.56564 c -3.85516,-5.64773 1.5398,-9.55968 13.18374,-9.55968 h 12.11353 v -99.77403 c 0,-87.046367 0.52165,-99.48059 4.09145,-97.473867 3.48186,1.957336 4.09155,16.792318 4.09155,99.555047 v 97.25501 l 12.95641,1.2173 c 7.126,0.67057 12.95642,3.01605 12.95642,5.21382 0,4.48527 -56.45206,7.87436 -59.3931,3.5658 z M 1.3526631,204.63204 V 147.38931 H 12.433508 23.514353 l -0.852579,43.5601 -0.852578,43.55996 42.278839,1.58308 c 23.253341,0.86993 44.119975,0.96055 46.370395,0.19936 3.39567,-1.14782 3.9466,-8.82463 3.23938,-45.14319 L 112.84523,147.389 h 11.08085 11.08084 v 58.20827 58.20826 L 68.179073,262.84046 1.3511167,261.87538 Z m 62.7364029,44.90442 c 17.252402,-5.12034 28.913248,-9.42225 25.91283,-9.55954 -3.000418,-0.13592 -19.571066,3.9396 -36.823572,9.05993 -17.252505,5.12049 -28.913248,9.42225 -25.91283,9.55969 3.000418,0.13593 19.571066,-3.93974 36.823572,-9.06008 z M 34.084682,211.3249 v -11.98794 h 35.459651 35.459757 v 11.98794 11.98793 H 69.544333 34.084682 Z m 0,-41.66772 c 0,-14.35335 -1.356291,-19.25469 -7.187024,-25.97383 -3.952893,-4.55518 -9.476409,-8.28198 -12.274558,-8.28198 -4.195988,0 -5.0874324,-3.08884 -5.0874324,-17.62675 0,-14.64619 1.3719604,-19.317829 8.1137264,-27.628506 11.993115,-14.783933 26.103449,-20.539953 50.531123,-20.613051 23.404681,-0.07552 43.414403,8.29648 51.623283,21.584923 2.5065,4.057396 4.8463,14.952034 5.1996,24.210414 0.61237,16.05711 0.16701,17.11205 -9.67857,22.88287 -10.1558,5.95296 -10.32074,6.39427 -10.32074,27.59377 v 21.54399 H 69.544333 34.084682 Z M 149.97035,36.500891 c 1.07763,-14.835133 2.52052,-28.3215753 3.2065,-29.9699065 0.68557,-1.6483313 11.52538,-2.9968699 24.08757,-2.9968699 25.76026,0 24.24365,-2.0555055 27.27232,36.9627034 l 1.78361,22.976959 h -29.15459 -29.15459 z"
       id="path47"
       inkscape:connector-curvature="0" />
  </g>
</svg>
